<mxfile host="app.diagrams.net" agent="Mozilla/5.0 (Windows NT 10.0; Win64; x64) AppleWebKit/537.36 (KHTML, like Gecko) Chrome/135.0.0.0 Safari/537.36" version="26.2.5">
  <diagram id="C5RBs43oDa-KdzZeNtuy" name="Page-1">
    <mxGraphModel dx="1576" dy="2071" grid="1" gridSize="10" guides="1" tooltips="1" connect="1" arrows="1" fold="1" page="1" pageScale="1" pageWidth="827" pageHeight="1169" math="0" shadow="0">
      <root>
        <mxCell id="WIyWlLk6GJQsqaUBKTNV-0" />
        <mxCell id="WIyWlLk6GJQsqaUBKTNV-1" parent="WIyWlLk6GJQsqaUBKTNV-0" />
        <mxCell id="n06JC92JtDvAnd-jPqie-0" value="c" style="outlineConnect=0;dashed=0;verticalLabelPosition=bottom;verticalAlign=top;align=center;html=1;shape=mxgraph.aws3.queue;fillColor=#D9A741;gradientColor=none;" vertex="1" parent="WIyWlLk6GJQsqaUBKTNV-1">
          <mxGeometry x="330" y="72" width="73.5" height="48" as="geometry" />
        </mxCell>
        <mxCell id="n06JC92JtDvAnd-jPqie-1" value="" style="outlineConnect=0;dashed=0;verticalLabelPosition=bottom;verticalAlign=top;align=center;html=1;shape=mxgraph.aws3.queue;fillColor=#D9A741;gradientColor=none;" vertex="1" parent="WIyWlLk6GJQsqaUBKTNV-1">
          <mxGeometry x="440" y="72" width="73.5" height="48" as="geometry" />
        </mxCell>
        <mxCell id="n06JC92JtDvAnd-jPqie-2" value="" style="outlineConnect=0;dashed=0;verticalLabelPosition=bottom;verticalAlign=top;align=center;html=1;shape=mxgraph.aws3.queue;fillColor=#D9A741;gradientColor=none;" vertex="1" parent="WIyWlLk6GJQsqaUBKTNV-1">
          <mxGeometry x="550" y="72" width="73.5" height="48" as="geometry" />
        </mxCell>
        <mxCell id="n06JC92JtDvAnd-jPqie-3" value="iFlow" style="ellipse;whiteSpace=wrap;html=1;" vertex="1" parent="WIyWlLk6GJQsqaUBKTNV-1">
          <mxGeometry x="526.75" y="220" width="120" height="80" as="geometry" />
        </mxCell>
        <mxCell id="n06JC92JtDvAnd-jPqie-5" value="" style="endArrow=classic;html=1;rounded=0;" edge="1" parent="WIyWlLk6GJQsqaUBKTNV-1" source="n06JC92JtDvAnd-jPqie-0" target="n06JC92JtDvAnd-jPqie-8">
          <mxGeometry width="50" height="50" relative="1" as="geometry">
            <mxPoint x="480" y="190" as="sourcePoint" />
            <mxPoint x="560" y="250" as="targetPoint" />
          </mxGeometry>
        </mxCell>
        <mxCell id="n06JC92JtDvAnd-jPqie-6" value="" style="endArrow=classic;html=1;rounded=0;" edge="1" parent="WIyWlLk6GJQsqaUBKTNV-1" source="n06JC92JtDvAnd-jPqie-2" target="n06JC92JtDvAnd-jPqie-3">
          <mxGeometry width="50" height="50" relative="1" as="geometry">
            <mxPoint x="550" y="170" as="sourcePoint" />
            <mxPoint x="811" y="247" as="targetPoint" />
          </mxGeometry>
        </mxCell>
        <mxCell id="n06JC92JtDvAnd-jPqie-7" value="iFlow" style="ellipse;whiteSpace=wrap;html=1;" vertex="1" parent="WIyWlLk6GJQsqaUBKTNV-1">
          <mxGeometry x="416.75" y="220" width="120" height="80" as="geometry" />
        </mxCell>
        <mxCell id="n06JC92JtDvAnd-jPqie-8" value="iFlow" style="ellipse;whiteSpace=wrap;html=1;" vertex="1" parent="WIyWlLk6GJQsqaUBKTNV-1">
          <mxGeometry x="306.75" y="220" width="120" height="80" as="geometry" />
        </mxCell>
        <mxCell id="n06JC92JtDvAnd-jPqie-10" value="" style="endArrow=classic;html=1;rounded=0;" edge="1" parent="WIyWlLk6GJQsqaUBKTNV-1" source="n06JC92JtDvAnd-jPqie-1" target="n06JC92JtDvAnd-jPqie-7">
          <mxGeometry width="50" height="50" relative="1" as="geometry">
            <mxPoint x="480" y="190" as="sourcePoint" />
            <mxPoint x="530" y="140" as="targetPoint" />
          </mxGeometry>
        </mxCell>
        <mxCell id="n06JC92JtDvAnd-jPqie-12" value="" style="endArrow=none;html=1;rounded=0;" edge="1" parent="WIyWlLk6GJQsqaUBKTNV-1">
          <mxGeometry width="50" height="50" relative="1" as="geometry">
            <mxPoint x="270" y="170" as="sourcePoint" />
            <mxPoint x="660" y="170" as="targetPoint" />
          </mxGeometry>
        </mxCell>
        <mxCell id="n06JC92JtDvAnd-jPqie-14" value="" style="swimlane;startSize=0;" vertex="1" parent="WIyWlLk6GJQsqaUBKTNV-1">
          <mxGeometry x="240" y="-4" width="500" height="200" as="geometry" />
        </mxCell>
        <mxCell id="n06JC92JtDvAnd-jPqie-15" value="&lt;font style=&quot;font-size: 24px;&quot;&gt;Azure Queues Dev&lt;/font&gt;" style="text;html=1;align=center;verticalAlign=middle;resizable=0;points=[];autosize=1;strokeColor=none;fillColor=none;" vertex="1" parent="WIyWlLk6GJQsqaUBKTNV-1">
          <mxGeometry x="384" y="-7" width="230" height="40" as="geometry" />
        </mxCell>
        <mxCell id="n06JC92JtDvAnd-jPqie-17" value="" style="sketch=0;aspect=fixed;pointerEvents=1;shadow=0;dashed=0;html=1;strokeColor=none;labelPosition=center;verticalLabelPosition=bottom;verticalAlign=top;align=center;fillColor=#00188D;shape=mxgraph.azure.queue_generic" vertex="1" parent="WIyWlLk6GJQsqaUBKTNV-1">
          <mxGeometry x="416.75" y="350" width="200" height="60" as="geometry" />
        </mxCell>
        <mxCell id="n06JC92JtDvAnd-jPqie-18" value="" style="endArrow=classic;html=1;rounded=0;exitX=0.5;exitY=1;exitDx=0;exitDy=0;entryX=0.5;entryY=0;entryDx=0;entryDy=0;entryPerimeter=0;" edge="1" parent="WIyWlLk6GJQsqaUBKTNV-1" source="n06JC92JtDvAnd-jPqie-7" target="n06JC92JtDvAnd-jPqie-17">
          <mxGeometry width="50" height="50" relative="1" as="geometry">
            <mxPoint x="496.75" y="310" as="sourcePoint" />
            <mxPoint x="490" y="340" as="targetPoint" />
          </mxGeometry>
        </mxCell>
        <mxCell id="n06JC92JtDvAnd-jPqie-19" value="" style="endArrow=classic;html=1;rounded=0;exitX=0.5;exitY=1;exitDx=0;exitDy=0;entryX=0.271;entryY=0.111;entryDx=0;entryDy=0;entryPerimeter=0;" edge="1" parent="WIyWlLk6GJQsqaUBKTNV-1" source="n06JC92JtDvAnd-jPqie-8" target="n06JC92JtDvAnd-jPqie-17">
          <mxGeometry width="50" height="50" relative="1" as="geometry">
            <mxPoint x="480" y="250" as="sourcePoint" />
            <mxPoint x="530" y="200" as="targetPoint" />
          </mxGeometry>
        </mxCell>
        <mxCell id="n06JC92JtDvAnd-jPqie-20" value="" style="endArrow=classic;html=1;rounded=0;exitX=0.5;exitY=1;exitDx=0;exitDy=0;entryX=0.5;entryY=0;entryDx=0;entryDy=0;entryPerimeter=0;" edge="1" parent="WIyWlLk6GJQsqaUBKTNV-1" source="n06JC92JtDvAnd-jPqie-3" target="n06JC92JtDvAnd-jPqie-17">
          <mxGeometry width="50" height="50" relative="1" as="geometry">
            <mxPoint x="590" y="320" as="sourcePoint" />
            <mxPoint x="560" y="340" as="targetPoint" />
          </mxGeometry>
        </mxCell>
        <mxCell id="n06JC92JtDvAnd-jPqie-21" value="JMS QUEUE" style="text;html=1;align=center;verticalAlign=middle;whiteSpace=wrap;rounded=0;" vertex="1" parent="WIyWlLk6GJQsqaUBKTNV-1">
          <mxGeometry x="343.5" y="365" width="60" height="30" as="geometry" />
        </mxCell>
        <mxCell id="n06JC92JtDvAnd-jPqie-22" value="Handler service" style="ellipse;whiteSpace=wrap;html=1;" vertex="1" parent="WIyWlLk6GJQsqaUBKTNV-1">
          <mxGeometry x="450" y="450" width="120" height="80" as="geometry" />
        </mxCell>
        <mxCell id="n06JC92JtDvAnd-jPqie-24" value="" style="endArrow=classic;html=1;rounded=0;exitX=0.411;exitY=0.971;exitDx=0;exitDy=0;exitPerimeter=0;" edge="1" parent="WIyWlLk6GJQsqaUBKTNV-1" source="n06JC92JtDvAnd-jPqie-22">
          <mxGeometry width="50" height="50" relative="1" as="geometry">
            <mxPoint x="480" y="480" as="sourcePoint" />
            <mxPoint x="440" y="600" as="targetPoint" />
          </mxGeometry>
        </mxCell>
        <mxCell id="n06JC92JtDvAnd-jPqie-25" value="" style="endArrow=classic;html=1;rounded=0;exitX=0.722;exitY=0.988;exitDx=0;exitDy=0;exitPerimeter=0;" edge="1" parent="WIyWlLk6GJQsqaUBKTNV-1" source="n06JC92JtDvAnd-jPqie-22">
          <mxGeometry width="50" height="50" relative="1" as="geometry">
            <mxPoint x="590" y="650" as="sourcePoint" />
            <mxPoint x="570" y="620" as="targetPoint" />
          </mxGeometry>
        </mxCell>
        <mxCell id="n06JC92JtDvAnd-jPqie-26" value="" style="endArrow=classic;startArrow=classic;html=1;rounded=0;exitX=0.5;exitY=1;exitDx=0;exitDy=0;exitPerimeter=0;entryX=0.5;entryY=0;entryDx=0;entryDy=0;" edge="1" parent="WIyWlLk6GJQsqaUBKTNV-1" source="n06JC92JtDvAnd-jPqie-17" target="n06JC92JtDvAnd-jPqie-22">
          <mxGeometry width="50" height="50" relative="1" as="geometry">
            <mxPoint x="480" y="480" as="sourcePoint" />
            <mxPoint x="530" y="430" as="targetPoint" />
          </mxGeometry>
        </mxCell>
        <mxCell id="n06JC92JtDvAnd-jPqie-28" value="" style="endArrow=classic;html=1;rounded=0;exitX=0.5;exitY=1;exitDx=0;exitDy=0;" edge="1" parent="WIyWlLk6GJQsqaUBKTNV-1" source="n06JC92JtDvAnd-jPqie-22">
          <mxGeometry width="50" height="50" relative="1" as="geometry">
            <mxPoint x="510" y="530" as="sourcePoint" />
            <mxPoint x="510" y="660" as="targetPoint" />
          </mxGeometry>
        </mxCell>
        <mxCell id="n06JC92JtDvAnd-jPqie-29" value="Read" style="text;html=1;align=center;verticalAlign=middle;whiteSpace=wrap;rounded=0;" vertex="1" parent="WIyWlLk6GJQsqaUBKTNV-1">
          <mxGeometry x="370" y="310" width="240" height="30" as="geometry" />
        </mxCell>
        <mxCell id="n06JC92JtDvAnd-jPqie-30" value="Read" style="text;html=1;align=center;verticalAlign=middle;whiteSpace=wrap;rounded=0;" vertex="1" parent="WIyWlLk6GJQsqaUBKTNV-1">
          <mxGeometry x="383.5" y="420" width="240" height="30" as="geometry" />
        </mxCell>
        <mxCell id="n06JC92JtDvAnd-jPqie-31" value="Process Direct" style="text;html=1;align=center;verticalAlign=middle;whiteSpace=wrap;rounded=0;" vertex="1" parent="WIyWlLk6GJQsqaUBKTNV-1">
          <mxGeometry x="396.75" y="555" width="240" height="30" as="geometry" />
        </mxCell>
        <mxCell id="n06JC92JtDvAnd-jPqie-32" value="" style="ellipse;whiteSpace=wrap;html=1;" vertex="1" parent="WIyWlLk6GJQsqaUBKTNV-1">
          <mxGeometry x="354" y="640" width="120" height="80" as="geometry" />
        </mxCell>
        <mxCell id="n06JC92JtDvAnd-jPqie-33" value="" style="ellipse;whiteSpace=wrap;html=1;" vertex="1" parent="WIyWlLk6GJQsqaUBKTNV-1">
          <mxGeometry x="559" y="600" width="120" height="80" as="geometry" />
        </mxCell>
        <mxCell id="n06JC92JtDvAnd-jPqie-34" value="" style="ellipse;whiteSpace=wrap;html=1;" vertex="1" parent="WIyWlLk6GJQsqaUBKTNV-1">
          <mxGeometry x="516.75" y="620" width="120" height="80" as="geometry" />
        </mxCell>
        <mxCell id="n06JC92JtDvAnd-jPqie-35" value="" style="ellipse;whiteSpace=wrap;html=1;" vertex="1" parent="WIyWlLk6GJQsqaUBKTNV-1">
          <mxGeometry x="430" y="620" width="120" height="80" as="geometry" />
        </mxCell>
        <mxCell id="n06JC92JtDvAnd-jPqie-36" value="" style="ellipse;whiteSpace=wrap;html=1;" vertex="1" parent="WIyWlLk6GJQsqaUBKTNV-1">
          <mxGeometry x="354" y="600" width="120" height="80" as="geometry" />
        </mxCell>
        <mxCell id="n06JC92JtDvAnd-jPqie-37" value="" style="ellipse;whiteSpace=wrap;html=1;" vertex="1" parent="WIyWlLk6GJQsqaUBKTNV-1">
          <mxGeometry x="430" y="660" width="120" height="80" as="geometry" />
        </mxCell>
        <mxCell id="n06JC92JtDvAnd-jPqie-38" value="" style="ellipse;whiteSpace=wrap;html=1;" vertex="1" parent="WIyWlLk6GJQsqaUBKTNV-1">
          <mxGeometry x="526.75" y="670" width="120" height="80" as="geometry" />
        </mxCell>
        <mxCell id="n06JC92JtDvAnd-jPqie-39" value="" style="ellipse;whiteSpace=wrap;html=1;" vertex="1" parent="WIyWlLk6GJQsqaUBKTNV-1">
          <mxGeometry x="580" y="650" width="120" height="80" as="geometry" />
        </mxCell>
        <mxCell id="n06JC92JtDvAnd-jPqie-40" value="" style="endArrow=classic;html=1;rounded=0;" edge="1" parent="WIyWlLk6GJQsqaUBKTNV-1" source="n06JC92JtDvAnd-jPqie-38">
          <mxGeometry width="50" height="50" relative="1" as="geometry">
            <mxPoint x="570" y="820" as="sourcePoint" />
            <mxPoint x="550" y="840" as="targetPoint" />
          </mxGeometry>
        </mxCell>
        <mxCell id="n06JC92JtDvAnd-jPqie-41" value="" style="endArrow=classic;html=1;rounded=0;" edge="1" parent="WIyWlLk6GJQsqaUBKTNV-1" source="n06JC92JtDvAnd-jPqie-37">
          <mxGeometry width="50" height="50" relative="1" as="geometry">
            <mxPoint x="490" y="790" as="sourcePoint" />
            <mxPoint x="530" y="850" as="targetPoint" />
          </mxGeometry>
        </mxCell>
        <mxCell id="n06JC92JtDvAnd-jPqie-42" value="" style="endArrow=classic;html=1;rounded=0;exitX=0.361;exitY=1.004;exitDx=0;exitDy=0;exitPerimeter=0;" edge="1" parent="WIyWlLk6GJQsqaUBKTNV-1" source="n06JC92JtDvAnd-jPqie-32">
          <mxGeometry width="50" height="50" relative="1" as="geometry">
            <mxPoint x="400" y="730" as="sourcePoint" />
            <mxPoint x="390" y="830" as="targetPoint" />
          </mxGeometry>
        </mxCell>
        <mxCell id="n06JC92JtDvAnd-jPqie-43" value="" style="endArrow=classic;html=1;rounded=0;exitX=0.378;exitY=0.979;exitDx=0;exitDy=0;exitPerimeter=0;" edge="1" parent="WIyWlLk6GJQsqaUBKTNV-1" source="n06JC92JtDvAnd-jPqie-37">
          <mxGeometry width="50" height="50" relative="1" as="geometry">
            <mxPoint x="490" y="790" as="sourcePoint" />
            <mxPoint x="470" y="820" as="targetPoint" />
          </mxGeometry>
        </mxCell>
        <mxCell id="n06JC92JtDvAnd-jPqie-44" value="" style="endArrow=classic;html=1;rounded=0;exitX=0.66;exitY=0.946;exitDx=0;exitDy=0;exitPerimeter=0;" edge="1" parent="WIyWlLk6GJQsqaUBKTNV-1" source="n06JC92JtDvAnd-jPqie-38" target="n06JC92JtDvAnd-jPqie-45">
          <mxGeometry width="50" height="50" relative="1" as="geometry">
            <mxPoint x="490" y="790" as="sourcePoint" />
            <mxPoint x="590" y="850" as="targetPoint" />
          </mxGeometry>
        </mxCell>
        <mxCell id="n06JC92JtDvAnd-jPqie-45" value="" style="swimlane;startSize=0;" vertex="1" parent="WIyWlLk6GJQsqaUBKTNV-1">
          <mxGeometry x="380" y="800" width="200" height="200" as="geometry" />
        </mxCell>
        <mxCell id="n06JC92JtDvAnd-jPqie-47" value="&lt;font style=&quot;font-size: 36px;&quot;&gt;SAP QS4&lt;br&gt;Client: 200&lt;/font&gt;" style="text;html=1;align=center;verticalAlign=middle;resizable=0;points=[];autosize=1;strokeColor=none;fillColor=none;" vertex="1" parent="n06JC92JtDvAnd-jPqie-45">
          <mxGeometry y="70" width="200" height="100" as="geometry" />
        </mxCell>
        <mxCell id="n06JC92JtDvAnd-jPqie-52" style="edgeStyle=orthogonalEdgeStyle;rounded=0;orthogonalLoop=1;jettySize=auto;html=1;exitX=1;exitY=0.5;exitDx=0;exitDy=0;entryX=0;entryY=0.5;entryDx=0;entryDy=0;" edge="1" parent="WIyWlLk6GJQsqaUBKTNV-1" source="n06JC92JtDvAnd-jPqie-48" target="n06JC92JtDvAnd-jPqie-49">
          <mxGeometry relative="1" as="geometry" />
        </mxCell>
        <mxCell id="n06JC92JtDvAnd-jPqie-48" value="Azure Service" style="ellipse;whiteSpace=wrap;html=1;" vertex="1" parent="WIyWlLk6GJQsqaUBKTNV-1">
          <mxGeometry x="840" y="40" width="120" height="80" as="geometry" />
        </mxCell>
        <mxCell id="n06JC92JtDvAnd-jPqie-53" style="edgeStyle=orthogonalEdgeStyle;rounded=0;orthogonalLoop=1;jettySize=auto;html=1;exitX=1;exitY=0.5;exitDx=0;exitDy=0;entryX=0;entryY=0.5;entryDx=0;entryDy=0;" edge="1" parent="WIyWlLk6GJQsqaUBKTNV-1" source="n06JC92JtDvAnd-jPqie-49" target="n06JC92JtDvAnd-jPqie-50">
          <mxGeometry relative="1" as="geometry" />
        </mxCell>
        <mxCell id="n06JC92JtDvAnd-jPqie-49" value="SCI Handler" style="ellipse;whiteSpace=wrap;html=1;" vertex="1" parent="WIyWlLk6GJQsqaUBKTNV-1">
          <mxGeometry x="1040" y="40" width="120" height="80" as="geometry" />
        </mxCell>
        <mxCell id="n06JC92JtDvAnd-jPqie-65" style="edgeStyle=orthogonalEdgeStyle;rounded=0;orthogonalLoop=1;jettySize=auto;html=1;exitX=1;exitY=1;exitDx=0;exitDy=0;entryX=0.5;entryY=0;entryDx=0;entryDy=0;" edge="1" parent="WIyWlLk6GJQsqaUBKTNV-1" source="n06JC92JtDvAnd-jPqie-50" target="n06JC92JtDvAnd-jPqie-62">
          <mxGeometry relative="1" as="geometry" />
        </mxCell>
        <mxCell id="n06JC92JtDvAnd-jPqie-50" value="SAP PO" style="ellipse;whiteSpace=wrap;html=1;" vertex="1" parent="WIyWlLk6GJQsqaUBKTNV-1">
          <mxGeometry x="1220" y="40" width="120" height="80" as="geometry" />
        </mxCell>
        <mxCell id="n06JC92JtDvAnd-jPqie-51" value="" style="endArrow=classic;html=1;rounded=0;exitX=1;exitY=0.5;exitDx=0;exitDy=0;" edge="1" parent="WIyWlLk6GJQsqaUBKTNV-1" source="n06JC92JtDvAnd-jPqie-14" target="n06JC92JtDvAnd-jPqie-48">
          <mxGeometry width="50" height="50" relative="1" as="geometry">
            <mxPoint x="970" y="360" as="sourcePoint" />
            <mxPoint x="1020" y="310" as="targetPoint" />
          </mxGeometry>
        </mxCell>
        <mxCell id="n06JC92JtDvAnd-jPqie-54" value="" style="ellipse;whiteSpace=wrap;html=1;" vertex="1" parent="WIyWlLk6GJQsqaUBKTNV-1">
          <mxGeometry x="1198" y="178" width="120" height="80" as="geometry" />
        </mxCell>
        <mxCell id="n06JC92JtDvAnd-jPqie-55" value="" style="ellipse;whiteSpace=wrap;html=1;" vertex="1" parent="WIyWlLk6GJQsqaUBKTNV-1">
          <mxGeometry x="1208" y="188" width="120" height="80" as="geometry" />
        </mxCell>
        <mxCell id="n06JC92JtDvAnd-jPqie-56" value="" style="ellipse;whiteSpace=wrap;html=1;" vertex="1" parent="WIyWlLk6GJQsqaUBKTNV-1">
          <mxGeometry x="1218" y="198" width="120" height="80" as="geometry" />
        </mxCell>
        <mxCell id="n06JC92JtDvAnd-jPqie-57" value="" style="ellipse;whiteSpace=wrap;html=1;" vertex="1" parent="WIyWlLk6GJQsqaUBKTNV-1">
          <mxGeometry x="1228" y="208" width="120" height="80" as="geometry" />
        </mxCell>
        <mxCell id="n06JC92JtDvAnd-jPqie-58" value="" style="ellipse;whiteSpace=wrap;html=1;" vertex="1" parent="WIyWlLk6GJQsqaUBKTNV-1">
          <mxGeometry x="1238" y="218" width="120" height="80" as="geometry" />
        </mxCell>
        <mxCell id="n06JC92JtDvAnd-jPqie-59" value="" style="ellipse;whiteSpace=wrap;html=1;" vertex="1" parent="WIyWlLk6GJQsqaUBKTNV-1">
          <mxGeometry x="1248" y="228" width="120" height="80" as="geometry" />
        </mxCell>
        <mxCell id="n06JC92JtDvAnd-jPqie-60" value="" style="ellipse;whiteSpace=wrap;html=1;" vertex="1" parent="WIyWlLk6GJQsqaUBKTNV-1">
          <mxGeometry x="1208" y="218" width="120" height="80" as="geometry" />
        </mxCell>
        <mxCell id="n06JC92JtDvAnd-jPqie-61" value="" style="ellipse;whiteSpace=wrap;html=1;" vertex="1" parent="WIyWlLk6GJQsqaUBKTNV-1">
          <mxGeometry x="1150" y="178" width="120" height="80" as="geometry" />
        </mxCell>
        <mxCell id="n06JC92JtDvAnd-jPqie-62" value="" style="ellipse;whiteSpace=wrap;html=1;" vertex="1" parent="WIyWlLk6GJQsqaUBKTNV-1">
          <mxGeometry x="1278" y="178" width="120" height="80" as="geometry" />
        </mxCell>
        <mxCell id="n06JC92JtDvAnd-jPqie-63" value="" style="ellipse;whiteSpace=wrap;html=1;" vertex="1" parent="WIyWlLk6GJQsqaUBKTNV-1">
          <mxGeometry x="1310" y="196" width="120" height="80" as="geometry" />
        </mxCell>
        <mxCell id="n06JC92JtDvAnd-jPqie-64" value="" style="endArrow=classic;html=1;rounded=0;entryX=0.683;entryY=0.113;entryDx=0;entryDy=0;exitX=0.5;exitY=1;exitDx=0;exitDy=0;entryPerimeter=0;" edge="1" parent="WIyWlLk6GJQsqaUBKTNV-1" source="n06JC92JtDvAnd-jPqie-69" target="n06JC92JtDvAnd-jPqie-54">
          <mxGeometry width="50" height="50" relative="1" as="geometry">
            <mxPoint x="970" y="360" as="sourcePoint" />
            <mxPoint x="1020" y="310" as="targetPoint" />
          </mxGeometry>
        </mxCell>
        <mxCell id="n06JC92JtDvAnd-jPqie-66" style="edgeStyle=orthogonalEdgeStyle;rounded=0;orthogonalLoop=1;jettySize=auto;html=1;exitX=0;exitY=1;exitDx=0;exitDy=0;entryX=0.339;entryY=0.096;entryDx=0;entryDy=0;entryPerimeter=0;" edge="1" parent="WIyWlLk6GJQsqaUBKTNV-1" source="n06JC92JtDvAnd-jPqie-50" target="n06JC92JtDvAnd-jPqie-61">
          <mxGeometry relative="1" as="geometry" />
        </mxCell>
        <mxCell id="n06JC92JtDvAnd-jPqie-70" value="" style="endArrow=classic;html=1;rounded=0;entryX=0.683;entryY=0.113;entryDx=0;entryDy=0;exitX=0.5;exitY=1;exitDx=0;exitDy=0;entryPerimeter=0;" edge="1" parent="WIyWlLk6GJQsqaUBKTNV-1" source="n06JC92JtDvAnd-jPqie-50" target="n06JC92JtDvAnd-jPqie-69">
          <mxGeometry width="50" height="50" relative="1" as="geometry">
            <mxPoint x="1280" y="120" as="sourcePoint" />
            <mxPoint x="1280" y="187" as="targetPoint" />
          </mxGeometry>
        </mxCell>
        <mxCell id="n06JC92JtDvAnd-jPqie-69" value="Process Direct" style="text;html=1;align=center;verticalAlign=middle;resizable=0;points=[];autosize=1;strokeColor=none;fillColor=none;" vertex="1" parent="WIyWlLk6GJQsqaUBKTNV-1">
          <mxGeometry x="1230" y="130" width="100" height="30" as="geometry" />
        </mxCell>
      </root>
    </mxGraphModel>
  </diagram>
</mxfile>
